<?xml version="1.0" encoding="utf-8"?>
<!-- Generator: Adobe Illustrator 25.1.0, SVG Export Plug-In . SVG Version: 6.00 Build 0)  -->
<!-- <svg version="1.1" id="Layer_1" xmlns="http://www.w3.org/2000/svg"
xmlns:xlink="http://www.w3.org/1999/xlink" x="0px" y="0px"
	 viewBox="0 0 1080 1080" style="enable-background:new 0 0 1080 1080;" xml:space="preserve">
<style type="text/css">
	.st0{fill:#FFFFFF;}
</style>
<path class="st0" d="M809.53,800.78l37.71,25.31l158.19-158.19L717.57,252.86V3.51l-90.49,75.03
c-22.14,18.35-44.53,38.03-66.61,58.53C311.85,368.45,143.25,679.12,85.74,1011.85l-11.18,64.64h751.98l-108.97-302.6v-11.99
	C750.3,768.83,781.45,781.94,809.53,800.78z M528.84,552.68c-23.64,21.64-36.79,51.74-37.03,84.76
c-0.24,32.35,12.01,63.69,34.49,88.25c22.48,24.56,52.62,39.53,84.86,42.15c1.55,0.13,3.08,0.22,4.62,0.29
c16.35,0.72,32.17-1.89,46.79-7.42l39.32,132.63l46.06,127.92H140.17c57.17-330.73,222.37-624.52,457.94-843.74
c20.88-19.39,42.25-38.22,64.24-56.45v149.07l271.41,391.33l-93.45,93.45c-50.87-34.13-107.04-51.56-172.88-51.56
c-28.46,26.06-76.44,20.85-105.2-10.55c-14.15-15.46-21.86-34.99-21.72-55.01c0.14-19.33,7.68-36.81,21.22-49.2L528.84,552.68z"/>
</svg> -->


<svg version="1.1" id="Layer_2" xmlns="http://www.w3.org/2000/svg" x="0" y="0"
	viewBox="0 0 80.3 80.3" style="enable-background:new 0 0 80.3 80.3" xml:space="preserve"><style>.st4{fill:#fff}.st6{fill:#0c2c48}</style><circle cx="40.2" cy="40.2" r="40.2" style="fill:#f6a09c"/><path class="st6" d="M67.7 56.2c0 .7-.5 1.2-1.2 1.2H13.8c-.7 0-1.2-.5-1.2-1.2V17.4c0-.7.5-1.2 1.2-1.2h52.8c.7 0 1.2.5 1.2 1.2v38.8z"/><path style="fill:#bababa" d="M29.8 56.3h20.7v7H29.8z"/><path style="fill:#a3b9c4" d="M15.5 18.6h49.2v30.5H15.5z"/><path class="st4" d="M12.6 48.1v8.1c0 .7.5 1.2 1.2 1.2h52.8c.7 0 1.2-.5 1.2-1.2v-8.1H12.6zM55.7 68.1v-2.2c0-1.7-1.3-3-3-3h-25c-1.7 0-3 1.3-3 3v2.2h31z"/><circle class="st6" cx="40.2" cy="52.5" r="1.5"/><g><path class="st4" d="M32.8 38.2 23.5 34v-1.6l9.3-4.5v2.4l-6.6 2.8v.1l6.6 2.7v2.3z"/><path d="m44.6 24.6-7 16.7h-2.8l6.9-16.7h2.9z" style="fill:#50646f"/><path d="M56.2 33.8 46.9 38v-2.4l6.7-2.7-6.7-2.8v-2.4l9.3 4.4v1.7z" style="fill:#ed6b5a"/></g></svg>